<?xml version="1.0" standalone="no"?>
<!DOCTYPE svg PUBLIC "-//W3C//DTD SVG 20010904//EN"
 "http://www.w3.org/TR/2001/REC-SVG-20010904/DTD/svg10.dtd">
<svg version="1.0" xmlns="http://www.w3.org/2000/svg"
 width="1440.000000pt" height="900.000000pt" viewBox="0 0 1440.000000 900.000000"
 preserveAspectRatio="xMidYMid meet">
<metadata>
Created by potrace 1.16, written by Peter Selinger 2001-2019
</metadata>
<g transform="translate(0.000000,900.000000) scale(0.100000,-0.100000)"
fill="#000000" stroke="none">
<path d="M5575 8648 c-66 -5 -139 -9 -162 -8 -23 0 -44 -4 -48 -10 -5 -8 -24
-9 -57 -5 -33 5 -48 4 -44 -3 5 -9 -77 -23 -136 -22 -15 0 -30 -5 -33 -10 -4
-7 -19 -8 -36 -5 -16 4 -29 2 -29 -3 0 -9 -67 -24 -107 -23 -12 0 -24 -3 -27
-8 -3 -4 -17 -6 -31 -3 -14 2 -25 0 -25 -6 0 -6 -25 -14 -55 -17 -30 -4 -57
-11 -60 -15 -3 -5 -14 -6 -25 -3 -12 3 -20 0 -20 -7 0 -8 -9 -10 -25 -6 -14 4
-25 2 -25 -4 0 -5 -11 -10 -24 -10 -14 0 -27 -4 -30 -9 -3 -5 -15 -7 -26 -4
-12 3 -20 0 -20 -7 0 -7 -8 -9 -20 -5 -11 4 -20 2 -20 -4 0 -6 -11 -11 -24
-11 -14 0 -28 -5 -31 -11 -4 -6 -13 -8 -21 -5 -7 3 -16 1 -20 -5 -3 -5 -14 -7
-25 -4 -10 4 -19 2 -19 -3 0 -6 -18 -13 -40 -17 -22 -4 -40 -10 -40 -15 0 -4
-9 -6 -20 -3 -11 3 -20 1 -20 -5 0 -6 -18 -13 -40 -17 -22 -4 -40 -10 -40 -15
0 -4 -9 -6 -20 -3 -11 3 -20 1 -20 -5 0 -6 -16 -14 -35 -18 -19 -3 -35 -11
-35 -16 0 -5 -10 -6 -21 -3 -14 5 -19 3 -15 -3 3 -6 -11 -13 -34 -17 -22 -4
-40 -11 -40 -17 0 -6 -7 -8 -15 -4 -8 3 -15 1 -15 -4 0 -6 -6 -10 -14 -10 -8
0 -27 -5 -43 -12 -15 -6 -34 -10 -40 -9 -7 1 -13 -3 -13 -9 0 -5 -3 -9 -7 -8
-5 1 -21 -4 -36 -10 -16 -7 -35 -12 -43 -12 -8 0 -14 -5 -14 -11 0 -6 -7 -9
-15 -5 -8 3 -15 2 -15 -3 0 -8 -38 -24 -52 -22 -5 1 -8 -4 -8 -10 0 -6 -6 -9
-14 -6 -8 3 -17 1 -20 -6 -3 -8 -5 -7 -5 3 -1 10 -6 8 -16 -7 -9 -13 -22 -20
-30 -17 -8 4 -15 1 -15 -5 0 -6 -7 -8 -15 -5 -9 4 -24 -3 -35 -16 -10 -12 -24
-19 -29 -15 -6 3 -11 2 -11 -4 0 -6 -7 -8 -15 -5 -8 4 -15 2 -15 -4 0 -9 -37
-25 -52 -23 -5 1 -8 -4 -8 -10 0 -6 -7 -8 -16 -5 -8 3 -13 2 -10 -3 3 -5 -15
-14 -39 -21 -25 -7 -45 -16 -45 -20 0 -8 -39 -23 -52 -21 -5 1 -8 -4 -8 -10 0
-6 -7 -9 -15 -5 -8 3 -15 1 -15 -5 0 -6 -4 -7 -10 -4 -5 3 -10 2 -10 -4 0 -5
-13 -12 -30 -16 -16 -4 -30 -11 -30 -16 0 -6 -5 -7 -10 -4 -6 3 -17 -1 -26 -9
-8 -9 -22 -16 -30 -16 -8 0 -14 -4 -14 -9 0 -5 -8 -7 -19 -4 -11 3 -21 -2 -24
-11 -4 -9 -13 -16 -22 -16 -8 0 -15 -4 -15 -8 0 -4 -17 -14 -37 -21 -21 -8
-44 -20 -52 -28 -10 -11 -16 -11 -21 -3 -5 8 -9 7 -13 -4 -4 -9 -11 -16 -17
-16 -6 0 -19 -7 -27 -16 -13 -13 -17 -13 -24 -2 -7 10 -9 11 -9 0 0 -7 -13
-18 -30 -23 -16 -6 -30 -16 -30 -22 0 -6 -3 -7 -6 -4 -4 4 -20 -3 -35 -14 -16
-11 -29 -17 -29 -14 0 4 -7 -1 -16 -9 -8 -9 -22 -16 -30 -16 -8 0 -14 -4 -14
-9 0 -5 -10 -13 -22 -17 -13 -5 -25 -9 -28 -10 -3 -1 -15 -5 -27 -9 -13 -4
-23 -12 -23 -17 0 -5 -4 -6 -10 -3 -5 3 -10 1 -10 -4 0 -6 -7 -11 -15 -11 -8
0 -15 -5 -15 -11 0 -5 -4 -7 -10 -4 -5 3 -10 1 -10 -5 0 -7 -8 -9 -21 -5 -14
5 -19 3 -15 -4 4 -6 -4 -13 -19 -17 -24 -6 -25 -10 -25 -71 0 -40 4 -62 10
-58 6 4 10 -32 10 -101 0 -99 2 -110 25 -140 14 -18 25 -37 25 -43 0 -13 23
-14 35 -2 11 10 394 203 490 246 155 70 259 115 265 115 4 0 -155 -433 -354
-962 l-362 -963 -104 -43 c-190 -78 -200 -83 -233 -132 -17 -25 -34 -46 -39
-48 -4 -2 -8 -10 -8 -18 0 -8 -7 -14 -15 -14 -8 0 -15 -5 -15 -11 0 -5 -4 -7
-10 -4 -5 3 -10 2 -10 -4 0 -5 -14 -12 -30 -16 -17 -4 -30 -11 -30 -16 0 -6
-4 -7 -10 -4 -5 3 -10 2 -10 -2 0 -8 -58 -35 -69 -32 -2 0 -7 -3 -10 -8 -6 -8
-63 -36 -69 -34 -7 4 -29 -28 -50 -72 -12 -26 -29 -50 -37 -53 -8 -4 -15 -15
-15 -27 0 -35 -199 -426 -200 -392 0 6 -3 6 -8 0 -7 -10 -49 -31 -65 -33 -4
-1 -15 -8 -23 -17 -9 -8 -21 -15 -29 -15 -7 0 -15 -5 -17 -11 -2 -5 -10 -11
-18 -13 -8 -1 -25 -7 -36 -14 -12 -6 -24 -9 -27 -5 -4 3 -9 -1 -13 -10 -3 -9
-12 -13 -21 -10 -10 4 -14 2 -10 -4 4 -7 -5 -14 -23 -18 -16 -4 -30 -11 -30
-16 0 -6 -4 -7 -10 -4 -5 3 -10 1 -10 -4 0 -6 -7 -11 -15 -11 -8 0 -15 -4 -15
-10 0 -5 -6 -7 -14 -4 -9 3 -17 -3 -21 -15 -3 -12 -10 -21 -14 -21 -11 0 -23
-74 -15 -94 5 -12 10 -10 30 11 13 14 27 23 30 20 3 -3 15 3 27 13 11 11 24
17 29 14 4 -3 8 0 8 6 0 7 6 10 12 8 7 -3 22 4 32 14 11 10 26 16 34 13 7 -2
15 2 18 10 4 8 10 12 15 9 5 -3 9 -1 9 5 0 5 13 12 30 16 16 4 30 11 30 16 0
5 11 11 25 15 14 3 25 10 25 15 0 5 7 5 17 2 10 -4 14 -2 10 4 -4 7 5 14 23
18 16 4 30 11 30 16 0 6 5 7 10 4 6 -3 10 -1 10 5 0 7 6 10 12 8 7 -3 21 4 32
13 10 10 23 16 28 13 4 -3 8 0 8 6 0 7 7 9 16 6 8 -3 12 -2 9 4 -3 6 -3 10 2
11 29 2 47 9 53 20 5 6 13 8 20 4 9 -5 11 -4 6 3 -4 7 -1 12 9 12 17 0 51 18
73 38 7 6 20 12 28 12 8 0 14 5 14 11 0 5 5 7 10 4 6 -3 17 1 26 9 8 9 22 16
30 16 8 0 14 4 14 10 0 5 7 6 17 3 10 -4 14 -2 10 4 -4 6 11 15 33 22 22 6 40
17 40 24 0 8 3 8 9 -1 7 -11 9 -11 14 2 4 9 13 16 21 16 8 0 22 7 30 16 12 12
16 12 16 2 0 -8 4 -7 11 5 5 9 17 17 24 17 8 0 15 5 15 11 0 6 9 9 20 6 12 -3
23 1 28 9 4 8 19 16 32 19 13 2 27 10 31 16 4 6 12 8 19 4 8 -5 11 -4 7 2 -6
10 27 27 46 24 4 -1 7 4 7 10 0 6 7 9 15 5 8 -3 15 -1 15 4 0 5 11 12 25 16
14 3 25 10 25 15 0 5 7 6 15 3 8 -4 15 -1 15 6 0 6 4 9 9 6 5 -3 14 1 21 9 7
8 16 12 21 9 5 -3 9 0 9 6 0 7 7 10 15 6 8 -3 15 0 15 6 0 6 3 8 7 5 3 -4 12
-2 19 3 6 6 22 13 35 15 12 3 25 9 28 14 7 11 62 35 74 33 4 -1 7 4 7 11 0 8
4 7 10 -3 7 -10 10 -11 10 -2 0 12 47 37 63 34 4 -1 7 3 7 9 0 6 9 8 20 4 11
-4 20 -2 20 4 0 6 7 11 15 11 8 0 15 5 15 11 0 5 5 7 11 3 6 -3 15 0 20 7 5 8
9 -49 9 -142 0 -154 0 -157 -22 -164 -13 -4 -26 -7 -30 -6 -5 1 -8 -4 -8 -9 0
-6 -6 -10 -12 -10 -7 0 -26 -7 -42 -15 -15 -8 -32 -12 -37 -9 -5 3 -9 0 -9 -6
0 -6 -4 -8 -10 -5 -5 3 -10 1 -10 -4 0 -6 -9 -11 -20 -11 -11 0 -20 -5 -20
-11 0 -6 -7 -9 -15 -5 -8 3 -15 1 -15 -5 0 -6 -5 -7 -11 -3 -6 3 -14 1 -18 -5
-4 -6 -18 -14 -31 -16 -13 -2 -27 -10 -31 -16 -4 -6 -12 -8 -19 -4 -8 5 -11 4
-7 -2 4 -6 -5 -14 -20 -18 -38 -9 -51 -31 -59 -102 -3 -35 -11 -63 -16 -63 -5
0 -7 -13 -3 -30 4 -18 2 -36 -4 -44 -6 -7 -11 -24 -11 -37 1 -56 -13 -179 -20
-179 -9 0 -11 -78 -11 -345 0 -285 2 -355 10 -355 5 0 11 -35 15 -77 4 -43 9
-91 12 -108 3 -16 5 -47 5 -67 0 -21 3 -38 8 -38 5 0 13 -29 16 -65 4 -36 11
-68 16 -71 5 -3 6 -16 3 -30 -4 -16 -2 -24 6 -24 8 0 11 -9 8 -25 -3 -13 -1
-26 3 -27 5 -2 10 -12 12 -23 1 -11 6 -25 10 -32 4 -6 4 -18 1 -27 -4 -9 -1
-16 6 -16 8 0 11 -9 8 -25 -3 -13 -1 -22 3 -19 5 3 9 -6 9 -20 0 -14 4 -27 8
-30 5 -3 17 -36 27 -73 10 -37 22 -73 27 -80 5 -7 7 -17 3 -23 -3 -5 -2 -10 4
-10 6 0 13 -16 17 -35 3 -19 10 -35 15 -35 5 0 9 -5 9 -11 0 -37 228 -493 282
-564 29 -37 78 -116 78 -125 0 -5 4 -10 9 -10 5 0 13 -10 17 -22 3 -12 22 -37
40 -57 19 -19 37 -45 40 -58 4 -13 12 -23 20 -23 7 0 16 -11 20 -25 3 -14 12
-25 19 -25 7 0 22 -17 32 -39 10 -21 27 -42 38 -47 11 -5 35 -33 55 -61 19
-29 40 -53 45 -53 14 0 195 -182 195 -196 0 -6 11 -17 25 -24 13 -7 22 -16 20
-20 -3 -4 3 -7 12 -6 9 0 30 -18 47 -41 17 -23 37 -40 43 -38 7 3 23 -9 35
-25 12 -17 28 -30 35 -30 7 0 18 -9 25 -20 7 -11 21 -20 30 -20 10 0 23 -9 30
-20 7 -11 18 -20 25 -20 6 0 18 -9 26 -20 8 -11 17 -17 20 -14 3 4 23 -7 44
-23 21 -17 52 -37 68 -46 17 -8 39 -24 50 -34 12 -10 27 -19 35 -21 8 -2 17
-8 18 -13 2 -5 10 -9 18 -9 8 0 13 -3 13 -7 -3 -19 2 -27 9 -15 7 9 14 8 32
-8 13 -11 29 -20 37 -20 7 0 13 -5 13 -10 0 -6 4 -9 8 -8 8 3 103 -42 112 -53
3 -3 22 -12 43 -20 21 -7 47 -22 58 -32 10 -10 24 -15 29 -12 6 3 10 2 10 -4
0 -6 7 -8 15 -5 8 4 15 1 15 -5 0 -6 3 -11 8 -10 14 2 52 -14 52 -22 0 -5 7
-6 15 -3 8 4 15 1 15 -5 0 -6 3 -10 8 -10 21 4 32 -2 26 -13 -5 -8 -2 -9 9 -5
10 4 30 1 45 -5 15 -6 31 -10 35 -10 4 1 10 -4 13 -12 3 -8 13 -12 25 -9 11 3
19 0 19 -7 0 -7 8 -9 20 -5 12 4 20 2 20 -5 0 -7 7 -9 15 -6 9 3 18 -1 21 -8
3 -8 14 -12 25 -9 10 3 19 1 19 -5 0 -6 9 -8 19 -5 11 3 34 -2 52 -11 18 -9
40 -16 51 -16 10 0 18 -5 18 -10 0 -6 11 -8 25 -4 14 3 25 2 25 -4 0 -5 10
-10 23 -10 39 -1 87 -14 87 -23 0 -5 11 -7 25 -3 14 3 31 2 38 -4 6 -6 23 -11
37 -11 55 -2 120 -14 120 -22 0 -5 20 -6 45 -2 31 4 45 2 45 -6 0 -7 17 -11
43 -10 23 1 114 -4 202 -10 162 -12 490 -7 556 8 19 4 50 6 67 3 18 -2 39 1
46 7 9 8 28 10 50 5 22 -4 36 -2 36 4 0 9 78 23 127 23 12 -1 25 4 28 9 3 5
19 7 35 3 18 -3 30 -1 30 5 0 5 25 13 55 17 30 3 57 11 61 16 3 5 14 7 25 4
10 -4 19 -2 19 3 0 5 20 13 45 16 24 4 47 12 51 17 3 5 14 7 25 4 11 -4 19 -2
19 5 0 7 8 9 20 5 11 -4 20 -2 20 4 0 6 9 11 19 11 11 0 22 4 26 10 3 5 12 7
20 3 8 -3 15 0 15 7 0 7 8 9 20 5 11 -4 20 -2 20 4 0 5 16 13 35 17 19 3 35
11 35 16 0 6 7 8 15 4 8 -3 15 -2 15 3 0 8 38 24 53 22 4 -1 7 4 7 10 0 6 7 8
16 5 8 -3 24 3 36 14 12 11 25 17 29 14 4 -2 10 0 14 6 4 6 11 8 16 5 5 -4 9
-2 9 4 0 5 14 12 30 16 17 4 30 10 30 15 0 4 10 6 23 3 16 -3 18 -2 8 5 -10 8
-6 11 18 17 17 3 31 11 31 16 0 6 5 7 10 4 6 -3 10 -2 10 2 0 8 43 28 64 30 5
1 13 8 18 16 4 9 22 18 38 22 17 4 30 11 30 17 0 5 5 8 12 6 7 -3 22 6 34 19
14 15 28 21 40 17 14 -4 15 -3 6 4 -11 7 -10 11 5 17 10 5 22 7 26 6 4 0 10 6
13 14 4 8 12 15 19 15 7 0 15 4 17 9 2 5 10 11 18 13 8 2 20 10 27 18 6 8 15
15 20 15 5 0 17 7 25 15 9 8 27 23 40 33 13 10 37 29 53 42 17 14 35 25 42 25
7 0 17 9 22 19 6 10 25 24 42 30 17 6 28 15 24 20 -3 6 12 22 34 37 43 28 359
341 389 384 15 23 35 46 92 106 11 12 20 24 20 29 0 4 10 19 23 34 12 15 31
40 42 55 11 16 25 33 31 40 5 6 13 19 17 29 3 9 11 17 16 17 5 0 12 11 15 25
4 14 11 25 16 25 6 0 10 5 10 10 0 12 52 94 63 98 4 2 7 8 7 12 0 5 25 51 55
103 30 51 55 99 55 105 0 5 3 12 8 14 13 6 71 131 149 328 25 63 50 118 55
121 5 3 6 13 2 22 -3 9 -2 17 4 17 6 0 13 18 17 40 4 22 10 40 13 40 4 0 8 16
9 36 1 20 7 42 12 47 6 6 11 22 11 35 0 13 4 21 9 18 5 -4 7 3 4 14 -3 11 0
26 6 33 6 8 8 17 5 20 -4 3 -3 14 1 24 5 10 10 29 12 43 2 14 8 26 13 28 5 2
7 17 3 33 -3 16 -1 29 4 29 6 0 11 12 11 28 2 53 14 112 23 112 5 0 9 6 9 13
0 21 130 421 140 431 6 6 18 5 32 -2 13 -7 34 -12 48 -12 58 0 160 -13 160
-21 0 -5 26 -9 58 -9 31 0 82 -2 112 -4 30 -3 115 -8 187 -12 73 -4 130 -10
128 -15 -3 -4 11 -9 31 -11 l36 -3 -406 -394 c-235 -229 -406 -402 -406 -412
0 -33 40 -124 64 -144 13 -11 26 -28 29 -37 6 -16 25 -18 219 -18 l213 1 430
419 c237 231 432 420 435 420 3 0 72 -172 154 -383 114 -291 156 -388 178
-409 15 -14 28 -31 28 -37 0 -8 67 -11 223 -11 l222 0 28 44 c17 28 27 57 27
82 0 27 -52 172 -166 464 -91 234 -168 430 -170 436 -9 20 47 35 103 28 32 -4
53 -3 53 4 0 9 119 23 192 22 20 0 39 4 43 10 4 7 23 9 51 4 26 -4 44 -2 44 3
0 6 26 13 58 17 31 4 73 9 92 11 19 3 52 5 73 5 20 0 37 4 37 10 0 5 10 10 23
9 28 -1 107 11 127 18 8 3 26 5 39 4 13 -2 26 1 30 6 7 10 130 34 174 34 15 0
27 4 27 10 0 6 14 7 36 3 24 -4 35 -3 31 4 -7 10 45 22 96 22 15 0 27 5 27 11
0 7 9 9 25 5 14 -4 25 -2 25 4 0 5 6 10 13 10 7 0 21 26 32 58 11 31 23 60 27
63 11 7 -1 39 -14 39 -6 0 -7 -7 -4 -16 9 -24 -39 -62 -70 -56 -14 2 -24 0
-24 -7 0 -7 -9 -9 -25 -5 -14 3 -25 2 -25 -4 0 -5 -27 -13 -60 -17 -33 -4 -62
-11 -65 -16 -3 -4 -19 -6 -35 -2 -18 3 -30 1 -30 -5 0 -5 -16 -12 -35 -14 -19
-2 -35 -1 -35 2 0 20 33 100 42 100 5 0 6 5 3 10 -6 10 21 106 50 175 6 17 16
44 22 60 8 26 13 30 42 27 18 -1 30 2 27 7 -6 9 48 21 91 21 12 0 25 5 28 10
3 6 17 7 31 4 13 -3 24 -2 24 3 0 15 -56 70 -78 77 -11 4 -69 -4 -129 -18
-195 -44 -722 -140 -730 -133 -1 2 25 74 58 162 l61 160 233 228 c129 125 237
236 240 247 8 27 -39 130 -62 136 -10 3 -26 18 -35 35 -15 26 -22 29 -68 29
-27 0 -50 3 -50 7 0 3 81 223 181 489 l181 482 92 11 c145 18 216 32 216 42 0
5 -16 23 -35 40 -19 17 -33 34 -31 38 2 3 -14 7 -35 8 -21 2 -39 -1 -39 -6 0
-5 -39 -12 -87 -16 -49 -4 -96 -12 -107 -17 -13 -7 -23 -6 -35 6 -10 11 -12
19 -6 24 6 4 16 30 23 57 7 28 20 63 28 79 8 16 14 35 14 43 0 7 4 13 9 13 5
0 7 9 4 20 -3 11 -1 20 5 20 6 0 13 18 17 40 5 30 11 40 25 40 10 0 22 5 25
10 4 7 24 8 52 4 31 -4 44 -3 39 4 -6 10 63 22 128 22 16 0 35 5 41 10 16 13
75 8 75 -7 0 -7 -4 -13 -9 -13 -11 0 -23 -59 -14 -73 4 -6 11 -3 19 7 7 10 17
15 23 12 5 -4 13 3 16 15 4 12 12 18 21 15 7 -3 18 4 24 15 6 11 15 17 20 14
5 -3 13 2 19 12 10 19 71 59 71 47 0 -4 6 1 14 12 8 10 19 19 25 19 6 0 22 16
36 34 29 41 20 61 -19 43 -13 -6 -33 -8 -44 -5 -11 2 -23 0 -26 -5 -4 -6 -22
-8 -43 -5 -24 4 -34 3 -30 -4 7 -11 -52 -24 -110 -23 -18 0 -35 -5 -38 -10 -4
-6 -21 -8 -41 -4 -20 4 -34 2 -34 -4 0 -10 -82 -24 -137 -23 -18 1 -35 -3 -38
-9 -3 -5 -25 -7 -50 -3 -27 3 -45 2 -45 -4 0 -13 -172 -34 -267 -33 -29 0 -53
-4 -53 -8 0 -5 -44 -12 -97 -16 -54 -4 -125 -9 -158 -12 -33 -3 -107 -4 -164
-4 -71 1 -101 -2 -96 -9 4 -8 -123 -11 -434 -11 -298 0 -441 3 -441 10 0 7
-36 10 -97 10 -54 -1 -125 1 -158 4 -33 3 -95 8 -137 12 -43 4 -78 11 -78 17
0 6 -19 7 -49 3 -30 -4 -52 -2 -56 4 -3 5 -20 10 -38 9 -55 -1 -137 13 -137
23 0 6 -14 8 -34 4 -19 -4 -37 -2 -41 3 -3 6 -18 10 -33 10 -50 1 -112 13
-112 23 0 5 -13 7 -30 3 -17 -4 -30 -2 -30 3 0 5 -12 9 -27 10 -44 1 -93 13
-93 23 0 5 -11 7 -25 3 -16 -4 -25 -2 -25 5 0 7 -9 9 -24 5 -13 -3 -27 -1 -30
5 -4 6 -18 11 -32 11 -13 0 -24 5 -24 10 0 6 -11 8 -25 4 -14 -3 -25 -2 -25 4
0 6 -9 8 -20 5 -11 -3 -20 -1 -20 5 0 5 -20 13 -45 16 -25 4 -45 11 -45 16 0
5 -7 7 -15 4 -8 -4 -21 -1 -29 5 -8 7 -18 11 -22 10 -17 -2 -54 13 -54 23 0 5
-9 6 -20 3 -12 -4 -20 -2 -20 5 0 7 -8 10 -20 7 -11 -3 -20 -1 -20 5 0 5 -4 7
-9 3 -5 -3 -15 1 -23 8 -7 8 -19 12 -26 9 -6 -2 -12 1 -12 8 0 6 -6 10 -12 9
-21 -2 -58 12 -58 23 0 5 -5 6 -10 3 -6 -4 -17 -1 -25 5 -8 6 -19 9 -25 5 -5
-3 -10 -2 -10 4 0 5 -13 12 -30 16 -16 4 -30 11 -30 17 0 6 -7 8 -15 4 -8 -3
-15 -2 -15 3 0 4 -19 13 -42 20 -57 17 -109 46 -100 56 4 5 -1 5 -10 2 -10 -4
-18 -2 -18 3 0 6 -7 10 -15 10 -8 0 -15 5 -15 11 0 5 -4 7 -10 4 -10 -6 -130
57 -155 82 -8 8 -15 12 -15 8 0 -3 -13 2 -30 12 -16 9 -30 21 -30 26 0 4 -4 6
-9 2 -5 -3 -16 2 -24 10 -9 8 -18 15 -21 15 -15 0 -117 73 -126 90 -6 10 -16
17 -23 14 -7 -2 -29 10 -48 28 -20 18 -40 34 -45 35 -22 6 -104 75 -104 88 0
8 -6 12 -14 9 -7 -3 -27 11 -44 30 -17 20 -35 36 -39 36 -4 0 -35 25 -67 55
-33 31 -75 67 -93 81 -18 14 -33 31 -33 39 0 8 -6 12 -14 9 -7 -3 -23 6 -34
20 -11 14 -24 26 -28 26 -5 0 -24 14 -43 30 -18 17 -38 30 -42 30 -5 0 -8 6
-7 13 2 6 -5 12 -15 12 -10 0 -25 9 -33 20 -8 11 -18 18 -22 16 -4 -2 -12 6
-18 19 -7 12 -13 17 -15 11 -5 -15 -68 30 -70 49 0 9 -2 11 -5 3 -7 -15 -34
-5 -34 13 0 7 -6 11 -13 8 -7 -2 -22 4 -32 14 -11 10 -35 24 -52 31 -18 7 -33
18 -33 23 0 5 -4 7 -8 4 -5 -3 -18 3 -29 14 -12 10 -24 16 -27 13 -3 -4 -6 -1
-6 5 0 7 -6 12 -14 12 -17 0 -120 52 -124 62 -2 5 -8 6 -13 2 -5 -3 -9 0 -9 6
0 7 -7 10 -15 6 -8 -3 -15 -1 -15 4 0 6 -7 10 -15 10 -8 0 -15 5 -15 11 0 6
-9 8 -20 4 -11 -4 -20 -2 -20 4 0 6 -3 11 -7 10 -15 -2 -53 14 -53 22 0 5 -7
6 -15 3 -8 -4 -15 -1 -15 6 0 7 -8 10 -20 7 -11 -3 -20 -1 -20 4 0 5 -9 9 -21
9 -12 0 -17 4 -13 11 4 8 0 9 -15 4 -13 -4 -21 -2 -21 5 0 7 -8 9 -20 5 -12
-4 -20 -2 -20 5 0 6 -6 10 -12 9 -23 -3 -78 13 -78 23 0 5 -9 7 -19 3 -11 -3
-22 -1 -25 4 -4 5 -31 13 -61 16 -30 4 -55 12 -55 17 0 5 -9 6 -20 3 -12 -4
-27 -2 -33 4 -7 5 -22 10 -32 11 -55 1 -115 13 -115 22 0 7 -15 8 -39 4 -23
-3 -42 -2 -46 4 -4 6 -23 10 -43 9 -20 0 -95 4 -167 10 -151 12 -369 12 -540
-1z m511 -91 c3 -8 -33 -95 -79 -193 l-84 -179 -186 -3 c-108 -1 -187 1 -187
7 0 5 40 93 89 195 l90 186 176 0 c138 0 177 -3 181 -13z m-696 -26 c0 -7 -40
-97 -146 -328 -13 -29 -27 -53 -31 -53 -18 0 -340 -49 -365 -55 -16 -4 -28 -5
-28 -2 0 3 17 43 39 89 112 242 141 297 158 301 15 5 200 36 293 50 48 8 80 7
80 -2z m1111 -20 c147 -30 229 -53 229 -62 0 -5 -25 -62 -56 -127 -31 -64 -67
-140 -80 -169 -12 -28 -27 -54 -32 -57 -5 -3 -31 1 -59 8 -27 7 -102 21 -166
31 -65 10 -117 22 -117 27 0 16 173 368 181 368 4 0 49 -9 100 -19z m-1877
-143 c-11 -36 -134 -311 -149 -334 -8 -13 -33 -26 -62 -33 -26 -7 -119 -33
-206 -57 -87 -25 -160 -44 -162 -42 -3 3 91 207 142 308 26 52 32 56 93 78 77
28 319 100 338 101 9 1 11 -6 6 -21z m2631 -113 c73 -35 137 -70 142 -77 7 -9
-12 -60 -68 -176 l-78 -163 -63 32 c-35 18 -103 49 -153 70 -49 21 -91 42 -93
47 -1 5 24 62 56 128 32 65 67 138 77 162 11 23 25 42 33 42 8 0 74 -29 147
-65z m-3435 -139 c0 -4 -29 -72 -63 -146 -11 -25 -35 -79 -53 -120 -18 -41
-39 -78 -46 -82 -7 -4 -71 -30 -143 -57 -71 -27 -168 -65 -214 -85 -47 -20
-86 -34 -88 -32 -3 3 73 165 134 285 16 30 35 58 43 63 29 15 108 49 365 156
51 21 65 25 65 18z m2785 -128 c49 -10 91 -21 93 -23 6 -5 13 15 -310 -845
l-283 -754 -85 -12 c-47 -6 -114 -19 -150 -29 -81 -21 -236 -93 -302 -141 -28
-19 -52 -34 -54 -31 -4 4 35 86 46 97 9 9 40 72 40 81 0 5 11 27 25 49 14 22
25 45 25 52 0 7 11 25 25 40 14 15 25 34 25 43 0 23 39 95 54 101 8 3 12 14 9
24 -3 11 5 30 21 47 22 24 29 42 25 69 0 4 3 10 8 13 19 13 53 70 53 90 0 14
5 19 14 15 10 -4 13 0 10 13 -3 11 3 26 15 37 11 10 17 24 15 31 -3 7 6 31 21
53 15 22 27 46 29 54 1 7 6 20 11 28 14 22 120 228 177 345 14 28 48 94 76
149 29 54 52 107 52 117 0 10 5 19 11 19 5 0 7 -4 4 -10 -3 -5 -1 -10 5 -10 7
0 10 7 6 15 -3 8 3 31 14 50 11 20 20 42 20 50 0 8 4 15 10 15 5 0 12 11 16
24 3 14 17 32 30 41 19 12 23 21 18 40 -5 21 -3 25 16 25 12 0 28 7 36 15 9 8
12 15 7 15 -5 0 -14 -5 -20 -11 -6 -6 -17 -8 -23 -4 -9 6 -9 9 1 16 11 6 11 9
-1 13 -43 13 -40 15 15 10 33 -3 100 -15 150 -26z m1218 -92 c45 -35 106 -86
134 -113 l53 -48 -66 -135 c-36 -74 -70 -145 -75 -157 -5 -13 -13 -23 -19 -23
-18 0 -271 214 -268 227 7 29 144 312 151 313 5 0 45 -29 90 -64z m-788 -41
c235 -98 372 -186 638 -406 106 -88 234 -192 285 -230 50 -39 92 -74 92 -79 0
-5 -31 -91 -69 -192 -38 -101 -128 -340 -200 -533 -73 -192 -138 -366 -146
-385 -8 -19 -58 -152 -111 -295 -53 -143 -105 -280 -114 -305 -75 -196 -90
-239 -90 -249 0 -19 -30 -12 -73 17 -74 50 -75 50 -40 -18 7 -14 13 -31 13
-37 0 -15 64 -63 133 -100 26 -15 47 -30 47 -36 0 -13 -52 -178 -55 -175 -2 2
-53 108 -114 236 l-110 233 245 511 c135 281 243 518 242 527 -3 13 -20 16
-107 16 l-105 0 -223 -465 c-122 -256 -224 -469 -226 -474 -2 -5 -23 3 -48 17
-25 15 -48 27 -51 27 -3 0 -6 -52 -6 -116 0 -64 -4 -119 -7 -123 -4 -3 -18 8
-31 24 l-24 30 -2 540 -3 540 -89 3 c-49 2 -94 -2 -99 -7 -6 -6 -9 -144 -8
-365 1 -196 0 -356 -3 -356 -3 0 -72 33 -153 73 -81 40 -181 87 -220 105 l-73
32 21 52 c46 117 69 181 69 194 0 9 -12 14 -37 14 -50 0 -165 -20 -180 -32 -6
-5 -24 -41 -38 -79 -15 -38 -32 -69 -39 -69 -7 0 -39 9 -71 20 -88 30 -101 28
-184 -43 -88 -74 -168 -174 -218 -275 l-36 -72 20 -20 c13 -11 29 -17 42 -13
13 3 21 1 21 -7 0 -7 8 -9 19 -5 11 3 22 1 26 -5 3 -5 17 -10 31 -10 13 0 24
-4 24 -10 0 -5 7 -7 15 -4 8 4 22 1 30 -6 8 -6 19 -9 24 -6 5 4 12 2 16 -4 3
-5 15 -10 26 -10 10 0 19 -4 19 -9 0 -5 9 -7 20 -4 11 3 20 1 20 -5 0 -5 12
-9 27 -9 14 0 31 -7 37 -15 6 -8 17 -13 24 -11 6 3 12 -1 12 -7 0 -7 7 -10 16
-6 13 5 66 -16 84 -34 3 -3 16 -6 30 -8 13 -1 28 -9 33 -17 4 -8 15 -11 24 -8
11 4 14 3 9 -5 -5 -8 -2 -10 8 -6 9 3 16 1 16 -6 0 -6 4 -9 9 -5 5 3 12 1 16
-5 4 -7 -128 -10 -401 -10 l-406 0 7 78 c19 221 84 370 225 525 97 107 229
190 375 238 60 19 95 23 239 25 123 3 172 7 178 16 5 7 7 56 5 108 -5 110 -23
56 268 825 159 418 278 733 296 783 5 12 13 22 18 22 5 0 57 -20 116 -45z
m-2876 -68 c-13 -13 -25 -30 -27 -38 -2 -7 -8 -15 -13 -17 -5 -2 -9 -9 -9 -16
0 -10 -93 -200 -213 -431 -8 -16 -21 -43 -28 -60 -8 -16 -24 -47 -36 -67 -13
-21 -23 -44 -23 -52 0 -8 -3 -16 -7 -18 -12 -5 -56 -88 -47 -88 4 0 1 -8 -7
-17 -8 -10 -24 -36 -34 -58 -11 -22 -23 -41 -27 -43 -5 -2 -8 -8 -8 -13 0 -19
-41 -99 -50 -99 -6 0 -10 -6 -10 -13 0 -10 -126 -268 -177 -362 -44 -80 -113
-227 -113 -240 0 -8 -4 -15 -9 -15 -4 0 -29 -42 -54 -92 -26 -51 -53 -104 -61
-118 -8 -14 -17 -32 -20 -40 -3 -8 -13 -25 -23 -38 l-16 -24 39 7 39 6 -36
-14 c-20 -8 -52 -23 -70 -33 -30 -17 -34 -26 -35 -62 -1 -23 3 -42 8 -42 6 0
75 22 154 50 92 31 144 45 144 37 -1 -7 -45 -97 -98 -202 l-97 -190 -50 -18
c-57 -21 -65 -30 -65 -74 0 -31 2 -32 35 -31 19 1 35 5 35 9 0 5 16 11 35 15
19 3 38 10 40 15 3 4 12 6 20 2 8 -3 15 -1 15 5 0 6 18 13 40 17 22 4 40 11
40 17 0 5 9 6 20 3 11 -4 20 -2 20 4 0 6 18 14 40 17 22 4 40 10 40 15 0 5 7
6 16 2 9 -3 19 -1 23 4 3 5 18 13 34 17 l27 6 0 -110 0 -110 -261 0 -260 0 1
568 c1 312 1 575 1 585 -1 14 -10 17 -51 17 -27 0 -50 2 -50 5 0 3 59 162 131
353 194 514 268 710 290 774 l21 57 81 32 c195 75 662 228 701 229 17 0 17 -2
-5 -23z m-1271 -214 l-72 -160 -236 -119 c-129 -65 -238 -120 -242 -122 -17
-8 -5 21 66 169 l75 154 238 122 c130 67 239 121 240 119 2 -1 -30 -75 -69
-163z m5477 -119 c29 -22 173 -116 230 -149 15 -9 10 -26 -55 -160 -39 -82
-73 -151 -74 -153 -9 -8 -296 174 -296 188 0 17 144 300 152 300 5 0 25 -12
43 -26z m757 -413 c21 -7 40 -17 44 -22 3 -5 -26 -75 -65 -155 -69 -143 -71
-146 -98 -139 -34 8 -264 115 -279 129 -8 8 6 47 55 147 36 74 69 140 74 146
5 8 42 -5 120 -41 61 -29 129 -59 149 -65z m-671 -149 c260 -149 603 -302 907
-402 95 -32 175 -59 178 -62 2 -3 -92 -261 -210 -574 -118 -313 -282 -748
-364 -967 -83 -219 -153 -401 -156 -405 -8 -8 -226 63 -416 136 -145 55 -449
187 -462 200 -4 4 13 70 38 147 53 164 52 167 -38 257 l-58 58 -151 0 c-117 0
-150 3 -146 13 2 6 82 219 176 472 95 253 178 476 186 495 8 19 70 184 138
365 69 182 132 347 140 368 l16 38 58 -39 c32 -21 106 -66 164 -100z m1152
-23 c71 -21 135 -39 142 -39 8 0 16 -4 20 -9 3 -5 -27 -78 -67 -161 l-72 -152
-30 6 c-41 8 -289 88 -299 96 -4 3 27 75 68 159 62 125 78 152 92 146 10 -3
75 -24 146 -46z m655 -150 c133 -22 142 -25 138 -44 -3 -12 -37 -87 -76 -169
-57 -119 -73 -146 -88 -142 -9 2 -55 12 -102 21 -127 24 -220 46 -220 54 0 3
32 75 72 159 72 153 72 154 103 149 16 -2 94 -15 173 -28z m2184 -70 c-7 -30
-123 -324 -131 -332 -9 -9 -360 -41 -368 -33 -3 3 26 83 64 178 l69 173 175
16 c96 9 179 15 184 14 6 -1 9 -9 7 -16z m-1489 -14 c130 -8 127 9 32 -190
-36 -76 -65 -141 -65 -146 0 -5 -24 -9 -52 -8 -66 0 -307 24 -313 31 -3 3 30
79 74 170 l79 164 68 -7 c38 -4 118 -10 177 -14z m787 -24 c0 -5 -31 -83 -69
-173 l-68 -163 -188 -3 c-148 -2 -186 0 -182 10 23 55 140 325 144 331 6 10
363 9 363 -2z m-7258 -239 c-2 -65 7 -110 57 -297 84 -314 359 -1337 381
-1417 l18 -67 -25 -83 c-14 -46 -29 -87 -33 -91 -9 -10 -40 110 -40 156 0 23
-6 37 -16 41 -9 3 -172 6 -363 6 -266 0 -351 -3 -365 -13 -11 -8 -28 -57 -47
-132 -36 -143 -42 -155 -75 -155 -14 0 -37 -9 -51 -20 -15 -11 -28 -19 -29
-17 -2 2 128 492 288 1090 160 598 294 1085 296 1082 3 -3 5 -40 4 -83z m5366
-21 c220 -56 606 -118 912 -147 96 -9 177 -18 178 -19 3 -3 -288 -784 -325
-872 l-13 -33 -85 0 -85 0 -33 -46 c-17 -25 -35 -53 -38 -62 -4 -10 15 -71 42
-142 27 -69 49 -132 49 -140 0 -8 -55 -162 -122 -342 l-123 -328 -35 0 c-45 0
-382 38 -388 44 -2 3 55 192 128 421 90 285 130 425 126 442 -4 13 -35 53 -70
89 l-64 64 -185 0 c-145 0 -187 -3 -196 -14 -6 -8 -75 -213 -152 -457 -78
-244 -142 -445 -143 -445 0 -1 -48 10 -106 25 -79 20 -104 30 -102 41 3 16
218 590 494 1325 94 248 183 487 200 533 19 51 36 82 45 82 8 0 49 -9 91 -19z
m-5244 -148 c15 -59 31 -121 35 -138 l7 -30 106 -5 c59 -3 109 -8 113 -11 3
-4 -26 -71 -65 -150 l-72 -143 18 -58 c12 -42 22 -58 35 -58 10 0 21 -5 24
-11 5 -6 47 -10 114 -9 125 1 197 -3 205 -11 3 -3 -1 -50 -9 -105 -8 -54 -15
-125 -15 -156 l0 -58 -60 0 c-38 0 -60 4 -60 11 0 8 -19 10 -61 6 -33 -3 -62
-7 -65 -9 -2 -3 28 -121 66 -263 38 -142 66 -264 62 -271 -6 -11 -94 305 -349
1261 -51 193 -93 352 -93 355 1 3 9 -5 19 -17 10 -12 30 -70 45 -130z m-1618
102 c-14 -22 -16 -86 -16 -584 0 -308 3 -561 8 -563 4 -2 145 -2 315 0 l307 3
0 585 0 584 72 0 71 0 -19 -21 c-18 -20 -19 -55 -24 -1003 l-5 -981 -24 -3
c-14 -2 -35 -11 -48 -19 l-23 -16 0 378 c1 208 -2 380 -5 383 -9 9 -593 9
-608 0 -9 -5 -13 -95 -17 -365 l-5 -357 -32 -7 c-18 -3 -40 -12 -48 -19 -13
-11 -15 100 -15 1009 l0 1021 66 0 66 0 -16 -25z m3295 5 c-2 -8 -7 -30 -10
-49 l-6 -35 -120 -1 c-150 -3 -267 -29 -390 -90 -294 -143 -490 -436 -512
-762 l-6 -93 -33 0 c-23 0 -38 -7 -49 -22 -16 -22 -17 -16 -12 107 6 153 29
251 86 372 76 159 181 286 324 394 183 138 374 199 612 196 101 -2 119 -4 116
-17z m445 -5 c-14 -22 -16 -81 -16 -525 l0 -500 -50 0 -50 0 0 525 0 525 66 0
66 0 -16 -25z m806 -7 c-32 -34 -482 -956 -482 -988 0 -9 58 -137 130 -286 71
-148 130 -278 130 -290 0 -22 -40 -147 -46 -142 -1 2 -53 109 -115 238 -92
194 -112 242 -110 277 1 34 -3 45 -20 53 -31 17 -63 5 -81 -32 -9 -18 -17 -26
-17 -17 -1 18 -51 68 -51 51 0 -6 5 -14 10 -17 14 -9 12 -38 -5 -76 l-16 -34
4 35 c3 19 0 43 -5 52 -11 21 -17 8 310 690 l247 518 74 0 75 0 -32 -32z
m-3716 -35 c15 -15 16 -34 11 -175 -5 -144 -4 -158 11 -158 10 0 71 11 137 24
179 36 195 38 195 26 0 -5 -40 -90 -89 -188 l-89 -177 -83 -20 -84 -20 -3 -44
-3 -43 38 6 c21 3 48 6 61 6 12 0 22 5 22 11 0 7 12 9 35 5 20 -4 35 -3 35 2
0 10 57 23 102 23 15 0 30 4 33 9 9 14 45 12 45 -2 0 -7 -75 -291 -166 -631
-91 -340 -164 -630 -162 -645 2 -22 -1 -28 -22 -30 -14 -2 -29 -10 -33 -18
-10 -18 -108 -19 -125 -2 -21 21 -13 28 27 28 77 0 71 -85 71 1031 0 608 4
999 9 999 5 0 17 -8 27 -17z m8679 -50 c-4 -10 -15 -40 -25 -68 -10 -27 -66
-176 -125 -330 -58 -154 -127 -337 -153 -407 -42 -115 -49 -128 -71 -128 -18
0 -76 -51 -220 -192 -384 -377 -577 -565 -633 -617 l-56 -52 -30 78 c-223 575
-274 699 -301 723 -46 42 -53 55 -41 81 7 19 208 548 311 824 l19 50 342 1
c339 1 610 13 843 38 66 8 126 14 134 15 9 1 11 -5 6 -16z m-9665 -340 l0
-188 -82 -32 c-45 -18 -83 -31 -85 -29 -2 1 5 23 15 47 11 24 48 122 83 217
35 94 65 172 66 172 2 0 3 -84 3 -187z m2419 116 c98 -16 97 -14 64 -57 -41
-52 -97 -147 -124 -210 l-22 -54 -81 7 c-45 4 -83 9 -86 12 -2 2 30 73 73 158
53 108 82 155 94 155 9 0 46 -5 82 -11z m831 -224 c50 -19 130 -55 130 -60 0
-4 -141 -289 -145 -293 -3 -3 -221 80 -313 118 -22 10 -21 11 53 160 l75 150
82 -31 c46 -17 99 -37 118 -44z m494 -241 c3 -9 6 -67 6 -130 l0 -114 -80 0
c-44 0 -80 3 -80 7 0 4 27 63 60 130 58 117 80 143 94 107z m-4014 -49 c0 -2
-49 -104 -110 -227 l-110 -223 -246 -118 c-136 -64 -249 -115 -251 -113 -2 2
49 111 114 242 138 278 91 235 401 365 185 77 202 83 202 74z m3423 -235 c665
0 757 -2 757 -15 0 -13 -94 -15 -762 -17 l-763 -3 -32 -95 c-18 -52 -147 -457
-287 -900 -476 -1502 -440 -1395 -465 -1398 -20 -3 -22 0 -16 20 14 45 719
2271 752 2371 13 42 18 48 37 43 11 -3 362 -6 779 -6z m1710 0 c115 0 137 -2
137 -15 0 -13 -22 -15 -140 -15 -123 0 -140 -2 -149 -18 -5 -9 -117 -359 -250
-777 -527 -1665 -505 -1600 -530 -1603 -20 -3 -22 0 -16 20 8 27 728 2299 752
2371 13 42 18 48 37 43 11 -3 83 -6 159 -6z m2035 0 c119 0 142 -2 142 -15 0
-13 -23 -15 -145 -15 -127 0 -145 -2 -154 -17 -5 -10 -120 -367 -255 -793
-546 -1723 -500 -1585 -525 -1588 -20 -3 -22 0 -16 20 9 28 730 2303 752 2371
13 42 18 48 37 43 11 -3 85 -6 164 -6z m2558 0 c121 0 144 -2 144 -15 0 -13
-23 -15 -146 -15 l-146 0 -246 -239 c-136 -132 -267 -260 -292 -286 -25 -26
-119 -118 -210 -205 -155 -148 -205 -185 -205 -151 0 21 928 921 943 916 8 -3
79 -5 158 -5z m-2266 -134 c-1 -23 -254 -823 -264 -833 -23 -23 -2 53 114 419
104 328 129 417 121 434 -5 12 -7 25 -3 29 10 9 32 -25 32 -49z m-3005 -222
c-19 -44 -39 -86 -44 -94 -9 -17 23 -62 48 -68 14 -3 122 -70 131 -81 3 -3 19
-13 35 -23 17 -9 38 -30 48 -46 18 -30 18 -31 -25 -166 -24 -75 -46 -136 -50
-136 -4 0 -13 6 -20 13 -7 7 -21 16 -30 20 -10 3 -18 11 -18 16 0 6 -6 8 -12
6 -7 -3 -25 6 -40 20 -15 14 -31 25 -35 24 -5 -1 -14 9 -20 22 -7 13 -13 19
-13 12 0 -7 -7 -10 -15 -7 -8 4 -15 12 -15 20 0 8 -6 11 -15 8 -9 -4 -18 2
-24 17 -5 13 -10 18 -10 11 -1 -9 -8 -8 -26 4 l-25 16 0 -123 c0 -87 5 -137
16 -169 26 -74 5 -159 -54 -222 -14 -16 -32 -28 -39 -28 -7 0 -13 -4 -13 -8 0
-27 -164 -38 -180 -11 -4 6 -12 9 -18 5 -5 -3 -13 1 -16 10 -3 8 -10 13 -15 9
-13 -8 -57 41 -81 91 -30 62 -21 187 16 201 8 3 14 11 14 18 0 17 59 67 71 59
5 -3 9 0 9 5 0 6 5 11 10 11 6 0 10 -10 10 -23 0 -13 5 -28 12 -35 16 -16 170
-16 186 0 8 8 12 60 12 169 l0 157 113 236 112 236 23 -49 22 -48 -35 -79z
m-3453 -241 c-1 -186 -5 -344 -8 -352 -3 -10 -7 -11 -18 -2 -8 7 -18 11 -22
10 -13 -3 -47 13 -62 28 -7 7 -22 13 -32 13 -11 0 -24 8 -29 18 -8 13 -11 14
-11 2 0 -12 -3 -11 -11 3 -6 9 -14 15 -20 12 -5 -3 -20 6 -35 20 -14 14 -29
23 -34 20 -5 -3 -11 3 -15 14 -3 11 -13 22 -21 25 -10 4 -13 2 -7 -7 4 -6 -7
-1 -24 13 -17 14 -30 27 -30 30 2 8 -46 55 -75 75 l-28 17 0 -180 c0 -200 3
-192 -70 -192 -48 0 -70 8 -70 26 0 10 12 14 38 14 21 0 43 5 50 12 9 9 12
104 12 365 l0 353 263 0 262 0 -3 -337z m3162 202 c13 -18 14 -18 41 3 15 12
36 22 46 22 15 0 10 -18 -38 -117 l-57 -118 -6 -155 -5 -154 -32 -7 c-18 -3
-40 -12 -48 -19 -13 -11 -15 21 -15 280 l0 293 50 -5 c33 -3 55 -11 64 -23z
m-154 -82 c-1 -79 -3 -95 -13 -83 -7 8 -19 16 -27 18 -8 2 -16 8 -18 13 -2 5
-8 9 -13 9 -12 0 -91 51 -101 65 -5 7 -8 7 -8 0 0 -5 -5 -2 -11 8 -6 9 -14 15
-20 12 -5 -4 -12 0 -15 9 -3 8 -12 12 -20 9 -8 -3 -14 0 -14 6 0 6 -6 11 -14
11 -8 0 -18 5 -21 10 -4 6 47 10 144 10 l151 0 0 -97z m-450 7 c4 -6 13 -12
21 -14 16 -2 73 -57 96 -92 8 -13 13 -30 10 -39 -4 -8 -2 -17 3 -20 13 -8 13
-55 0 -55 -6 0 -8 -11 -4 -25 3 -14 2 -25 -4 -25 -5 0 -12 -9 -15 -20 -4 -17
-13 -20 -59 -20 -76 0 -182 17 -265 41 -68 20 -72 23 -75 53 -5 45 16 121 41
147 12 13 21 26 21 29 0 3 16 12 35 20 19 8 35 17 35 21 0 21 147 19 160 -1z
m1763 -16 c3 -3 -3 -31 -14 -62 -11 -31 -18 -60 -16 -65 2 -6 11 18 22 52 10
34 24 61 31 61 12 0 124 -49 124 -54 0 -11 -168 -330 -175 -333 -6 -1 -24 6
-42 17 l-32 19 20 58 c10 31 18 61 16 66 -2 6 -11 -18 -22 -52 -20 -66 -31
-82 -41 -57 -8 21 97 356 112 356 6 0 13 -3 17 -6z m-2305 -122 c233 -159 382
-208 615 -200 59 2 107 0 107 -3 0 -4 -7 -12 -15 -19 -8 -7 -15 -26 -15 -41 0
-50 -64 -60 -245 -38 -168 21 -320 78 -459 171 -62 43 -64 49 -37 121 12 32
14 32 49 9z m2868 -111 c82 -30 153 -58 158 -63 13 -11 -152 -338 -170 -338
-33 0 -314 113 -314 126 0 20 161 335 169 332 4 -2 75 -27 157 -57z m2195
-102 c34 -85 67 -171 75 -193 l14 -38 -148 7 c-81 4 -148 8 -150 10 -1 1 27
80 63 176 36 96 68 180 70 188 3 8 8 12 10 9 3 -2 32 -74 66 -159z m-5831 101
c0 -19 -7 -20 -175 -20 -189 0 -193 -1 -257 -62 -10 -10 -24 -18 -32 -18 -8 0
-17 -8 -20 -17 -6 -15 -8 -15 -16 -3 -8 13 -10 12 -10 -2 0 -10 -7 -18 -15
-18 -8 0 -15 -5 -15 -11 0 -6 -7 -8 -16 -5 -8 3 -13 2 -10 -3 5 -7 -28 -22
-43 -20 -2 0 -7 -3 -10 -8 -3 -5 -18 -16 -33 -26 -16 -10 -28 -25 -28 -35 0
-10 -7 -28 -16 -40 -14 -20 -23 -23 -77 -20 -50 2 -62 6 -65 21 -3 14 4 17 35
17 21 0 43 4 50 8 7 4 29 69 49 145 l37 137 333 0 c327 0 334 0 334 -20z m696
-123 c17 6 73 -66 84 -107 15 -59 6 -133 -24 -184 -15 -25 -30 -46 -35 -46 -4
0 -18 -9 -31 -20 -13 -11 -31 -20 -40 -20 -9 0 -20 -3 -23 -6 -11 -11 -96 -10
-88 1 10 13 124 375 124 394 0 11 2 11 11 -1 6 -8 16 -13 22 -11z m878 -43 c3
-9 6 -40 6 -69 0 -86 -6 -89 -180 -82 -159 6 -245 23 -375 78 -42 17 -75 33
-73 34 2 2 40 -7 85 -20 113 -33 236 -48 358 -43 121 4 135 12 135 74 0 37 3
44 19 44 10 0 22 -7 25 -16z m2659 -21 c78 -20 146 -40 151 -44 24 -22 -118
-349 -152 -349 -23 0 -315 79 -324 88 -9 9 159 342 173 342 6 0 74 -16 152
-37z m-1223 -63 c0 -4 16 -11 35 -14 20 -4 33 -11 30 -16 -3 -6 1 -7 9 -4 9 3
16 1 16 -5 0 -6 7 -8 15 -5 8 4 15 1 15 -6 0 -6 5 -8 10 -5 6 3 13 -1 16 -10
4 -9 13 -14 20 -11 8 3 14 1 14 -5 0 -6 7 -9 15 -5 8 3 15 1 15 -5 0 -6 4 -8
9 -5 5 3 14 -1 21 -9 6 -7 18 -11 26 -8 8 3 14 0 14 -6 0 -6 3 -10 8 -9 4 1
20 -4 35 -10 16 -7 33 -12 38 -12 5 0 9 -5 9 -11 0 -6 9 -8 20 -4 12 4 20 2
20 -5 0 -6 4 -9 9 -5 5 3 12 1 16 -5 3 -5 15 -10 26 -10 10 0 19 -5 19 -11 0
-6 6 -9 14 -6 7 3 26 -1 41 -9 15 -8 34 -14 41 -14 8 0 14 -5 14 -11 0 -5 5
-7 10 -4 6 4 17 1 25 -5 8 -6 19 -9 24 -6 5 4 12 2 16 -4 3 -5 15 -10 26 -10
12 0 17 -4 13 -11 -4 -8 0 -9 15 -4 13 4 21 2 21 -5 0 -7 8 -9 19 -5 11 3 22
1 26 -5 3 -5 15 -10 26 -10 10 0 19 -5 19 -11 0 -6 9 -8 20 -4 12 4 20 2 20
-5 0 -7 8 -10 20 -7 11 3 23 1 26 -4 3 -5 16 -9 30 -9 13 0 24 -5 24 -11 0 -6
9 -8 20 -4 12 4 20 2 20 -5 0 -7 8 -10 20 -7 11 3 23 1 26 -5 3 -5 12 -7 20
-4 7 3 20 -1 27 -9 8 -8 24 -11 36 -8 13 3 21 1 21 -7 0 -7 8 -9 20 -5 11 3
28 0 38 -7 17 -12 16 -20 -30 -165 -34 -105 -53 -153 -63 -153 -8 0 -15 5 -15
11 0 6 -8 8 -19 4 -11 -3 -22 -2 -25 4 -3 5 -29 12 -56 16 -28 4 -50 11 -50
17 0 6 -9 8 -20 5 -11 -3 -23 -1 -26 4 -3 5 -11 9 -17 8 -22 -3 -77 13 -77 23
0 5 -9 6 -20 3 -12 -4 -20 -2 -20 5 0 6 -6 10 -12 9 -23 -3 -78 13 -78 23 0 5
-9 6 -20 3 -11 -3 -20 -2 -20 3 0 6 -18 13 -40 17 -22 4 -40 11 -40 17 0 5 -9
6 -20 3 -11 -3 -20 -2 -20 3 0 5 -16 13 -35 16 -19 4 -35 11 -35 17 0 6 -5 7
-10 4 -6 -4 -17 -1 -25 5 -8 6 -19 9 -25 5 -5 -3 -10 -1 -10 4 0 6 -9 11 -20
11 -11 0 -20 4 -20 10 0 5 -7 7 -15 4 -8 -4 -15 -1 -15 5 0 7 -6 11 -12 10
-21 -2 -58 13 -58 23 0 6 -7 8 -15 4 -8 -3 -15 -1 -15 5 0 6 -4 8 -9 4 -12 -7
-61 15 -61 27 0 5 -5 6 -10 3 -6 -4 -21 -1 -33 7 -12 8 -55 26 -95 42 -44 17
-69 32 -65 39 4 6 0 8 -10 4 -10 -4 -17 -2 -17 4 0 6 -7 9 -15 5 -8 -3 -15 -1
-15 4 0 6 -7 10 -15 10 -22 0 -19 14 29 166 25 76 43 141 40 145 -3 5 9 3 26
-2 16 -6 30 -15 30 -19z m4430 -51 c0 -19 -132 -364 -142 -370 -13 -9 -369
-51 -375 -45 -7 7 118 345 133 361 6 6 61 17 120 24 60 7 141 19 179 26 39 7
73 13 78 14 4 0 7 -4 7 -10z m-2407 -45 c15 -3 27 -8 27 -10 0 -2 -38 -81 -85
-174 -83 -165 -86 -170 -116 -170 -30 0 -31 1 -26 38 l6 37 -11 -32 c-7 -22
-17 -33 -31 -33 -14 0 -17 5 -13 16 4 9 30 91 58 181 l52 164 56 -6 c30 -3 67
-8 83 -11z m-3770 -53 c5 -5 16 -7 25 -4 11 5 13 3 7 -7 -5 -9 -4 -11 3 -6 17
10 52 -12 52 -32 0 -12 3 -13 8 -5 6 9 21 0 52 -32 24 -25 40 -45 35 -45 -6 0
-5 -4 1 -8 6 -4 19 -22 28 -39 l17 -33 -305 0 c-238 0 -304 3 -302 13 5 30 18
57 27 57 5 0 9 6 9 13 0 15 80 96 80 82 0 -6 5 -2 11 8 6 9 14 15 20 12 5 -4
9 -1 9 5 0 7 7 9 16 6 9 -4 13 -2 8 5 -4 7 -1 10 7 7 7 -2 24 1 37 7 25 14
141 10 155 -4z m4440 -7 c83 -4 117 -9 114 -18 -3 -6 -40 -86 -82 -178 l-78
-168 -66 0 c-83 0 -292 17 -299 24 -5 6 73 185 130 299 l29 59 67 -6 c37 -3
120 -8 185 -12z m353 -89 c4 -8 3 -26 0 -39 -4 -15 -210 -222 -514 -516 -279
-271 -544 -530 -590 -576 -82 -83 -105 -97 -115 -70 -4 9 204 218 594 597 330
321 597 589 595 595 -3 7 -2 15 1 18 11 10 23 7 29 -9z m-4558 -162 c-3 -17
-38 -18 -533 -21 -292 -1 -536 0 -542 3 -7 2 -10 11 -7 20 5 13 69 15 546 15
508 0 539 -1 536 -17z m-2538 -256 c0 -4 15 -7 33 -7 47 1 97 -11 97 -22 0 -6
9 -8 20 -5 10 3 20 2 22 -2 2 -3 29 -14 61 -24 31 -10 57 -22 57 -28 0 -5 7
-9 15 -9 8 0 15 -5 15 -11 0 -5 4 -8 9 -5 5 3 12 -1 15 -10 3 -8 10 -13 16 -9
5 3 15 -3 21 -14 7 -10 18 -17 24 -15 6 3 17 -7 25 -20 7 -14 17 -23 22 -20
12 8 121 -103 114 -115 -3 -5 2 -11 12 -13 9 -3 30 -31 46 -62 16 -31 32 -56
36 -56 3 0 12 -16 19 -35 11 -31 8 -46 -34 -176 -44 -137 -45 -143 -29 -168
41 -63 110 -141 127 -141 13 0 17 -9 17 -41 0 -22 -4 -38 -8 -35 -5 3 -6 -8
-4 -25 3 -18 0 -29 -7 -29 -7 0 -10 -4 -7 -9 10 -15 -51 -171 -66 -171 -5 0
-8 -8 -8 -18 0 -10 -9 -28 -20 -40 -11 -12 -20 -26 -20 -31 0 -6 -6 -14 -13
-18 -7 -4 -18 -21 -25 -36 -6 -15 -20 -30 -29 -34 -21 -7 -93 -82 -93 -95 0
-5 -16 -16 -35 -24 -19 -8 -35 -19 -35 -24 0 -6 -7 -10 -15 -10 -9 0 -18 -7
-21 -15 -4 -8 -10 -12 -15 -9 -5 3 -9 0 -9 -6 0 -7 -7 -9 -16 -6 -8 3 -12 2
-9 -4 3 -6 -1 -10 -9 -10 -9 0 -16 -5 -16 -11 0 -6 -7 -9 -15 -5 -8 3 -15 1
-15 -5 0 -6 -7 -9 -15 -5 -8 3 -15 2 -15 -3 0 -10 -38 -24 -57 -22 -7 1 -13
-3 -13 -9 0 -6 -10 -8 -26 -4 -18 5 -25 3 -21 -3 13 -20 -188 -39 -303 -29
-97 9 -140 18 -133 29 4 6 -4 8 -21 3 -16 -4 -26 -2 -26 5 0 6 -7 9 -15 6 -8
-4 -17 -2 -20 3 -4 6 -15 10 -26 10 -13 0 -18 4 -13 12 5 7 3 8 -5 4 -7 -5
-21 0 -33 11 -11 10 -21 16 -22 14 -3 -8 -46 11 -46 20 0 6 -4 7 -10 4 -5 -3
-10 -1 -10 4 0 6 -7 11 -15 11 -8 0 -19 8 -24 19 -6 10 -21 21 -33 25 -13 3
-32 18 -42 34 -10 16 -28 33 -40 38 -12 5 -21 14 -21 19 0 6 -10 20 -22 33
-13 12 -27 22 -33 22 -5 0 -10 4 -10 9 0 5 -7 16 -14 24 -24 24 -104 181 -99
195 3 6 0 12 -5 12 -11 0 -27 47 -23 68 1 6 -3 12 -10 12 -7 0 -9 10 -7 25 3
14 2 25 -2 25 -4 0 -12 41 -18 92 -12 95 2 278 21 278 4 0 5 10 2 21 -4 12 -3
24 2 28 4 3 14 28 21 56 7 27 17 52 22 55 5 3 12 18 15 33 4 15 11 27 16 27 5
0 9 6 9 14 0 19 60 116 71 116 5 0 9 6 9 13 0 15 118 131 143 140 9 4 17 11
17 16 0 6 17 18 38 28 20 9 40 22 44 27 4 6 11 11 15 12 13 1 47 15 63 25 8 5
23 12 33 15 9 4 17 10 17 14 0 5 9 6 20 3 11 -3 20 -1 20 5 0 6 9 8 20 5 11
-3 20 0 20 6 0 6 11 11 24 11 14 0 27 4 31 9 3 5 21 7 40 4 19 -3 35 -2 35 3
0 5 52 9 115 9 63 0 115 -3 115 -8z m2867 -59 c15 -7 31 -16 34 -21 3 -5 9 -8
13 -8 19 3 25 -1 31 -18 3 -10 14 -21 24 -24 23 -6 54 -72 48 -103 -2 -13 1
-26 7 -29 8 -4 8 -6 0 -10 -6 -3 -9 -17 -6 -30 6 -35 -41 -110 -90 -142 -34
-23 -52 -28 -114 -28 -41 -1 -74 2 -74 7 0 4 -3 7 -7 6 -19 -4 -63 27 -63 44
0 11 -7 18 -19 18 -15 0 -25 15 -40 55 -26 69 -26 81 -1 148 23 62 57 98 120
126 53 23 98 26 137 9z m-1091 -59 c10 -17 -45 -117 -77 -140 -16 -11 -29 -17
-29 -12 0 4 -5 1 -10 -7 -8 -13 -10 -13 -10 -1 0 11 -4 9 -14 -4 -12 -17 -24
-19 -82 -17 -38 2 -73 6 -79 10 -5 4 -17 7 -25 9 -8 1 -16 7 -18 12 -2 6 -9
11 -17 11 -35 0 -36 42 0 138 6 16 350 18 361 1z m452 -221 c7 -7 12 -9 12 -5
0 13 58 -22 85 -51 46 -48 63 -94 59 -161 -4 -65 -18 -100 -56 -142 -30 -33
-76 -61 -88 -54 -5 3 -11 1 -15 -5 -14 -23 -145 -3 -145 22 0 4 -6 5 -14 2 -9
-3 -21 7 -32 25 -10 17 -23 31 -29 31 -17 0 -48 59 -42 81 3 10 1 19 -4 19 -5
0 -9 14 -9 30 0 17 4 30 10 30 5 0 7 6 4 14 -7 19 24 86 40 86 6 0 20 14 30
31 11 18 23 28 32 25 8 -3 14 -2 14 2 0 26 125 43 148 20z m2177 -69 c4 -6 19
-7 35 -4 15 3 31 2 34 -3 3 -5 26 -13 51 -16 25 -4 45 -12 45 -17 0 -5 6 -9
13 -8 6 1 25 -3 40 -9 16 -7 33 -12 38 -12 5 0 9 -5 9 -11 0 -5 4 -8 9 -5 5 3
12 -1 15 -9 3 -8 9 -15 13 -14 20 3 34 -2 28 -11 -3 -5 3 -10 14 -10 11 0 22
-9 26 -19 3 -11 12 -18 19 -15 8 3 28 -13 47 -38 19 -24 38 -45 44 -47 10 -4
46 -42 74 -76 8 -10 11 -28 8 -45 -5 -21 2 -39 28 -76 19 -26 41 -52 50 -56 8
-5 18 -27 21 -48 4 -22 11 -40 16 -40 6 0 7 -11 4 -24 -4 -15 -1 -26 6 -28 17
-6 18 -300 1 -305 -7 -3 -9 -11 -6 -19 3 -8 2 -22 -3 -31 -11 -26 -11 -25 -19
-60 -4 -18 -11 -33 -15 -33 -4 0 -7 -6 -7 -12 2 -15 -35 -92 -45 -96 -5 -2 -8
-8 -8 -13 0 -16 -55 -88 -67 -89 -7 0 -18 -12 -25 -27 -7 -15 -27 -37 -45 -48
-17 -11 -36 -31 -42 -43 -8 -16 -17 -22 -27 -18 -8 3 -13 2 -10 -3 6 -9 -22
-26 -37 -22 -4 0 -10 -6 -13 -14 -3 -8 -10 -12 -15 -9 -5 3 -9 0 -9 -5 0 -6
-7 -11 -15 -11 -8 0 -15 -5 -15 -11 0 -6 -6 -9 -12 -7 -7 3 -19 -1 -26 -9 -7
-7 -22 -13 -33 -13 -10 0 -19 -5 -19 -11 0 -6 -9 -8 -20 -4 -12 4 -20 2 -20
-5 0 -6 -10 -8 -25 -4 -14 3 -25 2 -25 -4 0 -15 -61 -22 -185 -22 -133 1 -197
8 -188 23 4 6 -3 8 -21 3 -17 -4 -26 -2 -26 5 0 6 -9 9 -20 6 -11 -3 -20 -1
-20 4 0 5 -9 9 -20 9 -11 0 -20 4 -20 10 0 5 -6 7 -14 4 -7 -3 -20 2 -29 10
-9 9 -20 16 -26 16 -6 0 -11 5 -11 11 0 5 -4 8 -9 5 -5 -3 -12 1 -15 10 -3 8
-10 13 -15 9 -5 -3 -16 3 -23 12 -7 10 -20 18 -28 18 -8 0 -19 10 -25 22 -5
12 -20 27 -32 34 -13 7 -21 14 -19 16 5 6 -43 53 -54 53 -5 0 -15 10 -21 23
-7 12 -15 24 -18 27 -15 12 -61 91 -67 114 -3 14 -10 26 -14 26 -5 0 -12 15
-15 33 -4 17 -12 37 -17 44 -6 7 -11 32 -11 55 -1 24 -6 46 -12 50 -5 4 -9 70
-10 148 0 109 3 143 14 149 7 5 11 14 7 19 -4 6 -4 23 0 37 l6 25 434 0 433 0
36 112 c19 61 35 124 35 140 0 38 -55 118 -80 118 -11 0 -30 11 -44 25 l-25
25 -242 0 c-133 0 -239 3 -235 8 4 4 11 7 14 6 4 0 16 8 26 18 11 10 28 18 38
18 10 0 18 6 19 13 0 8 2 9 5 0 3 -7 14 -2 30 14 17 16 31 22 44 18 11 -4 20
-2 20 4 0 5 20 13 45 17 25 3 48 11 51 16 3 5 19 6 34 3 16 -3 31 -2 35 4 3 7
45 11 100 11 55 0 97 -4 100 -11z m-117 -196 c-3 -16 -33 -17 -388 -14 -212 1
-387 4 -389 6 -1 2 0 8 4 14 4 8 129 11 391 11 357 0 385 -1 382 -17z m-2308
-913 c0 -6 18 -7 45 -3 27 3 45 2 45 -4 0 -6 11 -8 25 -5 15 2 25 0 25 -7 0
-7 4 -10 9 -7 12 8 42 -4 36 -14 -3 -5 4 -6 15 -3 11 3 20 0 20 -6 0 -5 7 -8
15 -5 8 4 15 1 15 -5 0 -6 3 -10 8 -9 15 3 66 -23 86 -45 12 -12 27 -22 34
-23 29 -2 32 -5 33 -26 0 -13 3 -18 6 -11 6 15 43 -5 43 -24 0 -6 27 -35 60
-64 33 -29 60 -58 60 -64 0 -7 7 -15 15 -19 8 -3 15 -12 15 -21 0 -8 4 -15 9
-15 5 0 14 -15 22 -32 7 -18 16 -35 19 -38 18 -15 60 -146 77 -245 14 -78 4
-291 -14 -304 -4 -3 -9 -23 -10 -44 -3 -55 -113 -271 -146 -285 -4 -2 -21 -24
-38 -48 -16 -24 -41 -47 -54 -50 -14 -3 -25 -12 -25 -20 0 -17 -40 -45 -53
-37 -6 3 -7 1 -3 -5 4 -7 3 -12 -2 -12 -5 0 -20 -9 -33 -21 -13 -11 -25 -16
-27 -11 -2 6 -15 -1 -29 -14 -14 -13 -29 -21 -34 -18 -5 3 -9 1 -9 -4 0 -11
-37 -25 -57 -23 -7 1 -13 -3 -13 -9 0 -7 -8 -9 -20 -5 -12 4 -20 2 -20 -5 0
-6 -6 -10 -12 -7 -7 2 -21 0 -32 -5 -10 -6 -35 -12 -55 -15 -50 -7 -219 -6
-261 1 -77 13 -100 19 -100 26 0 5 -9 6 -20 3 -12 -3 -20 0 -20 6 0 7 -4 10
-10 6 -5 -3 -17 -1 -27 4 -10 5 -40 19 -66 31 -26 12 -55 30 -64 39 -9 9 -20
16 -23 16 -13 0 -75 50 -130 105 -64 64 -80 84 -106 131 -10 19 -21 36 -24 39
-12 11 -60 119 -76 168 -9 28 -14 61 -11 72 3 13 1 18 -5 13 -8 -4 -9 12 -4
51 4 38 3 55 -4 51 -6 -4 -10 14 -10 49 0 31 3 56 8 56 4 0 7 31 8 68 0 63 38
202 64 237 5 6 20 32 36 60 15 27 32 55 38 62 6 7 20 25 31 40 25 34 93 102
128 128 15 11 36 28 48 37 12 10 25 15 29 13 4 -3 10 2 13 9 8 21 134 79 157
73 11 -3 18 -1 15 3 -7 12 50 29 74 23 13 -3 21 -1 21 7 0 9 13 10 46 5 32 -4
44 -3 39 4 -4 8 19 11 74 11 46 0 81 -4 81 -10z"/>
<path d="M4437 5933 c-14 -38 -38 -122 -53 -188 -26 -119 -133 -529 -220 -843
-25 -90 -44 -168 -42 -174 3 -7 109 -10 333 -9 181 1 331 3 332 4 1 2 -38 153
-88 337 -199 744 -201 751 -194 805 4 39 1 59 -15 93 -11 23 -22 42 -24 42 -1
0 -15 -30 -29 -67z m60 -285 c-3 -35 0 -48 9 -48 7 0 15 -8 18 -17 38 -130
176 -665 176 -681 0 -12 -5 -22 -11 -22 -5 0 -7 -4 -4 -10 3 -5 -6 -34 -19
-65 l-26 -55 -221 0 c-173 0 -220 3 -217 13 3 6 65 238 139 515 l134 502 13
-42 c7 -24 11 -64 9 -90z"/>
</g>
</svg>
